<svg version="1.2" xmlns="http://www.w3.org/2000/svg" viewBox="0 0 842 595" width="842" height="595"><style>.a{display:none;fill:#6c6e70}.b{fill:#ec1c24}</style><g style="display:none"></g><path fill-rule="evenodd" class="a" d="m437.5 319.5v-70.7h59.3c5.5 0 9.5 1.1 11.9 3.3q3.7 3.2 3.7 10.5v15.7q0 7.2-3.7 10.4c-2.4 2.2-6.4 3.3-11.9 3.3h-10.8l33.6 27.5h-18.2l-29.9-27.5h-21.6v27.5zm54.4-61.5h-42.1v24.8h42.1q4.7 0 6.3-1.5 1.7-1.7 1.7-5.7v-10.3q0-4-1.7-5.7c-1.2-1.1-3.2-1.6-6.3-1.6zm64.1 3.5q0.2 2 0.3 4.3 0.2 2.3 0.2 6v47.7h-10.4v-70.7h10l35.7 46.1 33.4-46.1h11.3v70.7h-11.3v-47.7c0-0.6 0-2.1 0.2-4.7 0.2-2.5 0.3-4.4 0.3-5.6-0.9 1.8-1.7 3.4-2.5 4.6q-1 1.9-1.8 3l-28.1 39.3h-3.2l-29.2-38.2c0-0.1-0.2-0.2-0.4-0.5q-3.1-4.2-4.5-8.2zm104.4 58l40.1-70.7h13.2l40.8 70.7h-13.5l-9.4-17.3h-49.8l-9.3 17.3zm26.6-26.4h39.6l-19.8-36.2z"/><path fill-rule="evenodd" class="b" d="m308.1 161.2h254.9l114.7-79.7c16.9-11.8 21-7.5 12.6 12.5l-69.5 137.7v187.4c0 25.2-28.8 46-57.7 46h-247.3l-119.9 79.3c-19.2 10.4-23.8 6.7-13.7-11.4l73.4-132.2v-193.7c0-25.2 23.7-45.9 52.5-45.9zm1.2 258.9c199.3-1.5 253.8-40.1 253.4-209.4-190.7-1-262.7 77.1-253.4 209.4z"/><path fill-rule="evenodd" class="a" d="m87.4 319.5v-70.7h59.3c5.5 0 9.5 1.1 11.9 3.3q3.7 3.2 3.7 10.5v15.7q0 7.2-3.7 10.4c-2.4 2.2-6.4 3.3-11.9 3.3h-46.9v27.5zm54.4-61.5h-42.1v24.7h42.1c3 0 5.1-0.5 6.3-1.7q1.6-1.7 1.6-5.7v-9.9q0-4.1-1.6-5.7-1.8-1.7-6.3-1.7zm50.4 61.5v-70.7h12.3v28.9h58v-28.9h12.2v70.7h-12.2v-32h-58v32z"/><g style="display:none"><path class="b" d="m288.8 356.9h14v-2.7h-14v-3.4h24v-2.7h-31.1v15.5h31.4v-2.9h-24.3z"/><path fill-rule="evenodd" class="b" d="m229.2 355.7c0 2.6-1.6 4.6-4.8 5.9-3.2 1.3-8 1.9-14.4 1.9h-17.7v-15.5h19.5q8.3 0 12.9 2 4.5 2 4.5 5.7zm-7.3-0.2q0-2.3-2.5-3.5-2.4-1.2-7.6-1.2h-12.4v9.8h9.1c5 0 8.4-0.3 10.4-1.1q3-1.2 3-4z"/><path class="b" d="m452.2 363.6h7v-15.5h-7z"/><path class="b" d="m629.7 358.4l-24.5-10.3h-4.9v15.5h6.4v-10.4l24.5 10.4h4.9v-15.5h-6.4z"/><path class="b" d="m546.2 348.9c-1.1-0.6-3-0.8-5.9-0.8h-21c-2.9 0-4.9 0.3-6 0.8-1 0.5-1.5 1.5-1.5 2.9v8.2q0 2.1 1.5 2.8c1.1 0.6 3.1 0.8 6 0.8h21q4.4 0 5.9-0.8 1.6-0.7 1.6-2.8v-5.4h-18.4v2.8h11.4v3.2h-22v-9.6h22v1.6l7-0.6v-0.4q0-2-1.6-2.7z"/><path class="b" d="m398.1 354.9c-1-0.5-3-0.7-6-0.7h-18.8v-3.3h19.9v1.6l6.1-0.7v-0.3q0-1.9-1.6-2.7c-1.1-0.5-3.1-0.7-6-0.7h-17.2q-4.5 0-6 0.7c-1.1 0.6-1.6 1.6-1.6 3v1.7q0 2.1 1.6 2.9c1 0.5 3 0.7 6 0.7h18.7v3.6h-21.2v-1.8l-6.3 0.6v0.5q0 2.1 1.6 2.8 1.5 0.8 6 0.8h18.8q4.4 0 6-0.8 1.5-0.7 1.5-2.8v-2.2q0-2.1-1.5-2.9z"/></g></svg>