<svg xmlns="http://www.w3.org/2000/svg" xmlns:xlink="http://www.w3.org/1999/xlink" width="300" zoomAndPan="magnify" viewBox="0 0 224.87999 74.999997" height="100" preserveAspectRatio="xMidYMid meet" version="1.0"><path fill="#6c6e70" d="M 116.519531 40.722656 L 116.519531 22.730469 L 131.609375 22.730469 C 133.007812 22.730469 134.027344 23.007812 134.636719 23.570312 C 135.265625 24.109375 135.578125 25.003906 135.578125 26.242188 L 135.578125 30.234375 C 135.578125 31.457031 135.265625 32.339844 134.636719 32.882812 C 134.027344 33.441406 133.007812 33.722656 131.609375 33.722656 L 128.859375 33.722656 L 137.410156 40.722656 L 132.78125 40.722656 L 125.171875 33.722656 L 119.675781 33.722656 L 119.675781 40.722656 Z M 130.363281 25.070312 L 119.648438 25.070312 L 119.648438 31.382812 L 130.363281 31.382812 C 131.160156 31.382812 131.695312 31.253906 131.964844 31 C 132.253906 30.710938 132.398438 30.226562 132.398438 29.550781 L 132.398438 26.925781 C 132.398438 26.25 132.253906 25.765625 131.964844 25.476562 C 131.660156 25.195312 131.152344 25.070312 130.363281 25.070312 Z M 146.671875 25.960938 C 146.707031 26.300781 146.734375 26.664062 146.75 27.054688 C 146.785156 27.445312 146.800781 27.953125 146.800781 28.582031 L 146.800781 40.722656 L 144.152344 40.722656 L 144.152344 22.730469 L 146.699219 22.730469 L 155.78125 34.460938 L 164.28125 22.730469 L 167.15625 22.730469 L 167.15625 40.722656 L 164.28125 40.722656 L 164.28125 28.582031 C 164.28125 28.429688 164.28125 28.046875 164.332031 27.386719 C 164.382812 26.75 164.410156 26.265625 164.410156 25.960938 C 164.179688 26.417969 163.976562 26.824219 163.773438 27.132812 C 163.605469 27.453125 163.449219 27.707031 163.316406 27.894531 L 156.164062 37.894531 L 155.351562 37.894531 L 147.921875 28.175781 C 147.921875 28.148438 147.871094 28.125 147.816406 28.046875 C 147.292969 27.335938 146.910156 26.640625 146.671875 25.960938 Z M 173.238281 40.722656 L 183.441406 22.730469 L 186.800781 22.730469 L 197.183594 40.722656 L 193.75 40.722656 L 191.355469 36.316406 L 178.683594 36.316406 L 176.316406 40.722656 Z M 180.007812 34.003906 L 190.085938 34.003906 L 185.046875 24.789062 Z M 180.007812 34.003906 " fill-opacity="1" fill-rule="evenodd"/><path fill="#ec1c24" d="M 88.578125 23.085938 L 103.289062 23.085938 L 109.902344 18.480469 C 110.871094 17.800781 111.109375 18.046875 110.617188 19.214844 L 106.621094 27.15625 L 106.621094 37.972656 C 106.621094 39.421875 104.964844 40.617188 103.289062 40.617188 L 89.039062 40.617188 L 82.117188 45.199219 C 80.996094 45.785156 80.742188 45.582031 81.300781 44.539062 L 85.550781 36.902344 L 85.550781 25.730469 C 85.550781 24.28125 86.925781 23.085938 88.578125 23.085938 Z M 88.65625 38.023438 C 100.15625 37.921875 103.289062 35.707031 103.261719 25.933594 C 92.269531 25.882812 88.121094 30.386719 88.65625 38.023438 Z M 88.65625 38.023438 " fill-opacity="1" fill-rule="evenodd"/><path fill="#6c6e70" d="M 27.429688 40.722656 L 27.429688 22.730469 L 42.519531 22.730469 C 43.921875 22.730469 44.9375 23.007812 45.550781 23.570312 C 46.175781 24.109375 46.492188 25.003906 46.492188 26.242188 L 46.492188 30.234375 C 46.492188 31.457031 46.175781 32.339844 45.550781 32.882812 C 44.9375 33.441406 43.921875 33.722656 42.519531 33.722656 L 30.585938 33.722656 L 30.585938 40.722656 Z M 41.273438 25.070312 L 30.5625 25.070312 L 30.5625 31.355469 L 41.273438 31.355469 C 42.039062 31.355469 42.570312 31.226562 42.878906 30.921875 C 43.148438 30.632812 43.285156 30.152344 43.285156 29.472656 L 43.285156 26.953125 C 43.285156 26.257812 43.148438 25.773438 42.878906 25.503906 C 42.570312 25.214844 42.039062 25.070312 41.273438 25.070312 Z M 54.097656 40.722656 L 54.097656 22.730469 L 57.230469 22.730469 L 57.230469 30.082031 L 71.988281 30.082031 L 71.988281 22.730469 L 75.09375 22.730469 L 75.09375 40.722656 L 71.988281 40.722656 L 71.988281 32.578125 L 57.230469 32.578125 L 57.230469 40.722656 Z M 54.097656 40.722656 " fill-opacity="1" fill-rule="evenodd"/><path fill="#ec1c24" d="M 78.679688 50.238281 L 82.242188 50.238281 L 82.242188 49.550781 L 78.679688 49.550781 L 78.679688 48.6875 L 84.789062 48.6875 L 84.789062 48 L 76.875 48 L 76.875 51.945312 L 84.863281 51.945312 L 84.863281 51.207031 L 78.679688 51.207031 Z M 78.679688 50.238281 " fill-opacity="1" fill-rule="nonzero"/><path fill="#ec1c24" d="M 63.515625 49.933594 C 63.515625 50.59375 63.105469 51.105469 62.292969 51.433594 C 61.480469 51.765625 60.257812 51.917969 58.628906 51.917969 L 54.125 51.917969 L 54.125 47.972656 L 59.085938 47.972656 C 60.496094 47.972656 61.589844 48.144531 62.371094 48.484375 C 63.132812 48.820312 63.515625 49.304688 63.515625 49.933594 Z M 61.65625 49.882812 C 61.65625 49.492188 61.445312 49.195312 61.019531 48.992188 C 60.613281 48.789062 59.96875 48.6875 59.085938 48.6875 L 55.929688 48.6875 L 55.929688 51.179688 L 58.246094 51.179688 C 59.519531 51.179688 60.382812 51.105469 60.894531 50.898438 C 61.402344 50.695312 61.65625 50.355469 61.65625 49.882812 Z M 61.65625 49.882812 " fill-opacity="1" fill-rule="evenodd"/><path fill="#ec1c24" d="M 120.261719 51.945312 L 122.042969 51.945312 L 122.042969 48 L 120.261719 48 Z M 120.261719 51.945312 " fill-opacity="1" fill-rule="nonzero"/><path fill="#ec1c24" d="M 165.425781 50.621094 L 159.191406 48 L 157.945312 48 L 157.945312 51.945312 L 159.574219 51.945312 L 159.574219 49.296875 L 165.808594 51.945312 L 167.054688 51.945312 L 167.054688 48 L 165.425781 48 Z M 165.425781 50.621094 " fill-opacity="1" fill-rule="nonzero"/><path fill="#ec1c24" d="M 144.179688 48.203125 C 143.898438 48.050781 143.417969 48 142.679688 48 L 137.335938 48 C 136.597656 48 136.085938 48.074219 135.808594 48.203125 C 135.554688 48.328125 135.425781 48.585938 135.425781 48.941406 L 135.425781 51.027344 C 135.425781 51.382812 135.554688 51.621094 135.808594 51.738281 C 136.085938 51.894531 136.597656 51.945312 137.335938 51.945312 L 142.679688 51.945312 C 143.425781 51.945312 143.925781 51.875 144.179688 51.738281 C 144.449219 51.621094 144.585938 51.382812 144.585938 51.027344 L 144.585938 49.652344 L 139.90625 49.652344 L 139.90625 50.367188 L 142.804688 50.367188 L 142.804688 51.179688 L 137.207031 51.179688 L 137.207031 48.738281 L 142.804688 48.738281 L 142.804688 49.144531 L 144.585938 48.992188 L 144.585938 48.890625 C 144.585938 48.550781 144.449219 48.320312 144.179688 48.203125 Z M 144.179688 48.203125 " fill-opacity="1" fill-rule="nonzero"/><path fill="#ec1c24" d="M 106.492188 49.730469 C 106.238281 49.601562 105.730469 49.550781 104.964844 49.550781 L 100.183594 49.550781 L 100.183594 48.710938 L 105.246094 48.710938 L 105.246094 49.117188 L 106.796875 48.941406 L 106.796875 48.863281 C 106.796875 48.542969 106.664062 48.3125 106.390625 48.175781 C 106.113281 48.050781 105.601562 48 104.863281 48 L 100.488281 48 C 99.726562 48 99.214844 48.058594 98.960938 48.175781 C 98.679688 48.328125 98.554688 48.585938 98.554688 48.941406 L 98.554688 49.375 C 98.554688 49.730469 98.691406 49.976562 98.960938 50.109375 C 99.214844 50.238281 99.726562 50.289062 100.488281 50.289062 L 105.246094 50.289062 L 105.246094 51.207031 L 99.851562 51.207031 L 99.851562 50.746094 L 98.25 50.898438 L 98.25 51.027344 C 98.25 51.382812 98.382812 51.621094 98.65625 51.738281 C 98.910156 51.875 99.417969 51.945312 100.183594 51.945312 L 104.964844 51.945312 C 105.714844 51.945312 106.222656 51.875 106.492188 51.738281 C 106.746094 51.621094 106.875 51.382812 106.875 51.027344 L 106.875 50.46875 C 106.875 50.109375 106.746094 49.867188 106.492188 49.730469 Z M 106.492188 49.730469 " fill-opacity="1" fill-rule="nonzero"/></svg>